<svg width="79" height="32" viewBox="0 0 79 32" fill="none" xmlns="http://www.w3.org/2000/svg">
<path fill-rule="evenodd" clip-rule="evenodd" d="M22.9469 8.15723H23.9446L24 8.43436V8.82235L23.8337 9.76462L23.4457 10.5406L23.0577 10.9286L22.5035 11.2612L21.7829 11.4829L20.8961 11.5383L20.6189 11.4829V10.4852L20.7298 9.98633L20.9515 9.43205L21.2841 8.98864L21.5612 8.7115L22.1155 8.37894L22.9469 8.15723ZM22.6697 8.98864L23.1686 8.93321V9.3212L23.0577 9.70919L22.7252 10.208L22.2818 10.5406L22.0046 10.596V10.4852L22.2263 10.3743V10.2635L22.3372 10.208L22.6697 9.82004L22.2818 9.48748L21.5612 10.208L21.5058 10.0418L21.7275 9.59834L22.1709 9.21034L22.6697 8.98864Z" fill="#FAD04A"/>
<path fill-rule="evenodd" clip-rule="evenodd" d="M16.2956 9.04406H15.2979L15.2425 9.09949V10.1526L15.4642 11.0394L15.7968 11.7046L16.2956 12.2588L16.7945 12.5914L17.5704 12.8685L18.3464 12.9794H18.9007L19.1224 12.924V11.76L18.9007 10.9286L18.5681 10.2635L18.1247 9.76462L17.6259 9.43205L16.8499 9.15492L16.2956 9.04406ZM16.351 9.82004H16.0185V10.2635L16.2402 10.984L16.5727 11.4829L16.9607 11.8154L17.4596 12.0371L17.8476 12.0926L17.515 11.7046L16.4065 10.596L16.5173 10.3743L16.6836 10.208L16.9053 10.3189L18.2356 11.6491L18.291 11.4829L18.0693 10.8732L17.6813 10.3743L17.127 10.0418L16.6282 9.87547L16.351 9.82004Z" fill="#FAD04A"/>
<path d="M20.0647 10.4297H19.5104V18.0787L19.6767 17.9124L20.1201 16.7485V10.4852L20.0647 10.4297Z" fill="#FAD04A"/>
<path d="M18.9561 14.6976H18.4573L18.4018 14.7531V19.8524L18.679 19.5752L19.0115 19.0764V14.7531L18.9561 14.6976Z" fill="#FAD04A"/>
<path fill-rule="evenodd" clip-rule="evenodd" d="M16.6282 14.6976H17.8476L17.903 14.7531V20.5729L17.0716 21.3489L16.8499 21.4598L15.5196 20.1295L15.2979 20.0187L15.0762 20.2958L16.4065 21.626L16.4619 21.8478L16.2402 22.014L15.963 22.1249L14.7436 20.9055L14.5219 20.7946L14.3002 21.0718L15.5751 22.3466L15.2979 22.6237L14.9654 22.6792L13.9677 21.6815L13.746 21.5706L13.5242 21.8478L14.5774 22.9009L14.4111 23.0672L13.8568 23.2334L13.4134 22.79L13.358 23.3997L13.3025 23.4551L12.7483 23.566L12.6928 22.6792L12.3048 23.0117L12.2494 23.6769L12.194 23.7323L11.6397 23.7877L11.418 23.8431H10.5866V23.7877L12.4157 21.9586L12.3603 21.7369L12.1386 21.626L9.92148 23.8431H9.20092L9.09007 23.7323L11.6397 21.1826L11.5843 20.9609L11.3626 20.8501L8.5358 23.6769H8.09238L7.81524 23.566V23.4551L10.9192 20.3512L10.8083 20.1849L10.5866 20.0741L7.64896 23.0117L7.20554 23.3997L6.59584 23.2334L6.15242 23.0117L6.097 20.1295L5.70901 19.7969L5.65358 22.7346H5.54272L5.04388 22.4575L4.98845 19.021L4.60046 18.6884L4.54503 22.0695L4.32332 22.014L3.93534 21.6815V17.5244H3.49192V21.1826L3.43649 21.2381L2.99307 20.9055L2.54965 20.4066L2.49423 20.1849H2.82679V19.6861H1.99538L1.71824 19.2981L1.66282 19.0764H2.82679V18.633H1.38568L1.27483 18.5775L1.10855 18.3004L1.05312 18.0233L2.82679 17.9678V17.5244H0.77598L0.720554 17.4136L0.554272 16.9147L2.77136 16.8593L2.82679 16.8039V16.4159H0.387991L0.332563 16.305L0.277136 15.8062H2.82679V15.3073H0.110853L0.0554276 15.2519L0 14.6976H3.43649L3.49192 14.7531L3.54734 16.8593H3.87991L3.93534 14.8085L3.99076 14.6976H4.48961L4.54503 14.7531L4.60046 16.9147L4.98845 16.8593L5.04388 14.7531L5.09931 14.6976H5.59815L5.65358 14.7531L5.70901 16.9147L6.097 16.8593L6.15242 14.7531L6.20785 14.6976H6.7067L6.76213 14.7531L6.81755 16.8593H7.15012L7.20554 16.8039L7.26097 14.7531L7.3164 14.6976H7.81524L7.87067 14.7531V16.9147L8.25866 16.8593L8.31409 15.0302L8.36951 14.6976H8.92379L8.97921 14.7531L9.03464 17.469L9.42263 17.8016V14.8085L9.47806 14.6976H9.9769L10.0323 14.7531L10.0878 18.4113L10.1432 18.5775L10.5312 18.9101V14.7531L10.5866 14.6976H11.1409L11.1963 19.6307L11.6397 20.0187V14.7531L11.6951 14.6976H12.194L12.2494 14.7531L12.3048 20.7392L12.582 21.0163H12.6928L12.7483 14.7531L12.8037 14.6976H13.2471L13.358 14.7531L13.4134 15.3073L16.8499 18.7438L17.2933 19.1318L17.2379 18.5221L13.5797 14.8639V14.6976H14.3002L14.4111 14.7531L16.8499 17.1919L17.2933 17.5799L17.2379 16.9702L15.1871 14.9194L15.0762 14.6976H15.8522L16.0739 14.8639L16.8499 15.6399L17.2933 16.0279L17.2379 15.4736L17.1824 15.3628L16.739 14.9194L16.6282 14.6976ZM4.60046 17.5244H5.09931L8.5358 20.9609L8.59122 21.1826L8.48037 21.2935L8.25866 21.4043L4.65589 17.8016L4.60046 17.5244ZM6.65127 17.5244H6.04157L6.15242 17.7461L9.03464 20.6284L9.25635 20.5175L9.3672 20.4066L9.31178 20.1849L6.65127 17.5244ZM15.2979 18.4113L15.5196 18.3004L15.6859 18.4667L15.7413 18.6884L13.5797 20.8501L13.358 20.9609V20.3512L15.2979 18.4113ZM8.20323 17.5244H7.59353L7.70439 17.7461L9.81062 19.8524L10.0323 19.7415L10.1432 19.6307L10.0878 19.409L8.20323 17.5244ZM15.8522 19.409L16.2402 19.0764L17.2933 20.1295V20.9055H17.1824L15.8522 19.5752V19.409ZM14.7436 17.5244L14.5219 17.6353L13.358 18.7993V19.409L13.5797 19.2981L14.9654 17.9124L14.9099 17.6907L14.7436 17.5244ZM6.76213 22.9009V20.8501H6.87298L7.26097 21.2935V22.4575L6.98383 22.79L6.76213 22.9009ZM13.9677 16.7485L13.746 16.8593L13.358 17.2473V17.857L13.6351 17.6907L14.1894 17.1364L14.1339 16.9147L13.9677 16.7485Z" fill="#FAD04A"/>
<path d="M30.728 24H27.128V7.92H30.968L36.176 15.984L37.52 18.144H37.76L37.712 15.984V7.92H41.312V24H37.472L32.48 16.392L30.92 13.92H30.68L30.728 16.392V24ZM49.4187 24.24C45.2667 24.24 43.3707 21.816 43.3707 18C43.3707 14.136 45.6747 11.688 49.4427 11.688C53.0667 11.688 55.2028 13.848 55.2028 16.992C55.2028 17.664 55.1068 18.36 55.0347 18.768H46.7547C46.8267 20.448 47.4987 21.12 49.4667 21.12C50.9067 21.12 51.5308 20.808 51.5308 20.064V19.92H55.0828V20.16C55.0828 22.728 52.8748 24.24 49.4187 24.24ZM49.3228 14.64C47.5947 14.64 46.9227 15.312 46.7787 16.584H51.7467C51.8188 15.336 51.0027 14.64 49.3228 14.64ZM62.8524 24.24C59.0604 24.24 57.2124 22.824 57.2124 19.896V19.824H60.6444V20.328C60.6444 21.216 61.1724 21.408 62.9244 21.408C64.3884 21.408 64.6284 21.192 64.6284 20.592C64.6284 19.944 64.2924 19.8 62.6844 19.512L60.8604 19.176C58.4844 18.744 57.1884 17.736 57.1884 15.504C57.1884 13.272 59.0124 11.688 62.4444 11.688C65.3964 11.688 67.6524 13.08 67.6524 15.792V16.128H64.2204V15.792C64.2204 15 63.8844 14.568 62.3484 14.568C60.9084 14.568 60.5724 14.88 60.5724 15.456C60.5724 16.032 60.7884 16.2 62.2284 16.488L64.4364 16.944C66.9804 17.424 68.0364 18.576 68.0364 20.544C68.0364 22.8 66.1884 24.24 62.8524 24.24ZM75.5495 24.048C72.4055 24.048 70.8935 22.896 70.8935 20.04V14.904H68.9735V11.928H70.9895L71.6615 9.12H74.4935V11.928H77.9015V14.904H74.4935V19.632C74.4935 20.688 74.8535 20.808 76.4135 20.808H77.9015V23.808C77.3255 23.928 76.3895 24.048 75.5495 24.048Z" fill="#FAD04A"/>
</svg>
