<svg width="20" height="20" viewBox="0 0 20 20" fill="none" xmlns="http://www.w3.org/2000/svg">
<path d="M9.72785 8.69561C9.64785 8.68761 9.55185 8.68761 9.46385 8.69561C7.55985 8.63161 6.04785 7.07161 6.04785 5.15161C6.04785 3.19161 7.63185 1.59961 9.59985 1.59961C11.5599 1.59961 13.1519 3.19161 13.1519 5.15161C13.1439 7.07161 11.6319 8.63161 9.72785 8.69561Z" stroke="#292D32" stroke-width="1.2" stroke-linecap="round" stroke-linejoin="round"/>
<path d="M5.72788 11.6478C3.79188 12.9438 3.79188 15.0558 5.72788 16.3438C7.92788 17.8158 11.5359 17.8158 13.7359 16.3438C15.6719 15.0478 15.6719 12.9358 13.7359 11.6478C11.5439 10.1838 7.93588 10.1838 5.72788 11.6478Z" stroke="#292D32" stroke-width="1.2" stroke-linecap="round" stroke-linejoin="round"/>
</svg>
